<svg width="472" height="500" viewBox="0 0 472 500" fill="none" xmlns="http://www.w3.org/2000/svg">
<path d="M472 382.4H0V382.65H472V382.4Z" fill="#FDEEEE"/>
<path d="M424.704 398.49H404.238V398.74H424.704V398.49Z" fill="#FDEEEE"/>
<path d="M325.368 393.31H293.168V393.56H325.368V393.31Z" fill="#FDEEEE"/>
<path d="M416.419 389.21H374.383V389.46H416.419V389.21Z" fill="#FDEEEE"/>
<path d="M163.333 394.25H152.816V394.5H163.333V394.25Z" fill="#FDEEEE"/>
<path d="M144.404 394.25H108.164V394.5H144.404V394.25Z" fill="#FDEEEE"/>
<path d="M88.7465 390.03H62.5977V390.28H88.7465V390.03Z" fill="#FDEEEE"/>
<path d="M223.728 337.8H41.4511C40.0232 337.797 38.6546 337.195 37.6457 336.124C36.6369 335.053 36.0703 333.603 36.0703 332.09V60.66C36.0827 59.156 36.6548 57.718 37.6623 56.6582C38.6698 55.5985 40.0313 55.0026 41.4511 55H223.728C225.158 55 226.529 55.6016 227.54 56.6724C228.55 57.7433 229.118 59.1956 229.118 60.71V332.09C229.118 333.604 228.55 335.057 227.54 336.128C226.529 337.198 225.158 337.8 223.728 337.8ZM41.4511 55.2C40.0858 55.2026 38.7772 55.7791 37.8126 56.8027C36.848 57.8264 36.3063 59.2136 36.3063 60.66V332.09C36.3063 333.536 36.848 334.924 37.8126 335.947C38.7772 336.971 40.0858 337.547 41.4511 337.55H223.728C225.094 337.547 226.404 336.971 227.37 335.948C228.336 334.924 228.88 333.537 228.882 332.09V60.66C228.88 59.2127 228.336 57.8255 227.37 56.8021C226.404 55.7787 225.094 55.2026 223.728 55.2H41.4511Z" fill="#FDEEEE"/>
<path d="M427.923 337.8H245.636C244.208 337.797 242.838 337.195 241.828 336.125C240.817 335.054 240.249 333.604 240.246 332.09V60.66C240.261 59.1551 240.835 57.7171 241.844 56.6576C242.853 55.5981 244.216 55.0025 245.636 55H427.923C429.341 55.0052 430.7 55.6022 431.705 56.6617C432.711 57.7212 433.282 59.1578 433.294 60.66V332.09C433.294 333.601 432.729 335.05 431.722 336.121C430.715 337.191 429.349 337.795 427.923 337.8ZM245.636 55.2C244.27 55.2026 242.961 55.7787 241.994 56.8021C241.028 57.8255 240.485 59.2127 240.482 60.66V332.09C240.485 333.537 241.028 334.924 241.994 335.948C242.961 336.971 244.27 337.547 245.636 337.55H427.923C429.289 337.547 430.599 336.971 431.565 335.948C432.531 334.924 433.074 333.537 433.077 332.09V60.66C433.074 59.2127 432.531 57.8255 431.565 56.8021C430.599 55.7787 429.289 55.2026 427.923 55.2H245.636Z" fill="#FDEEEE"/>
<path d="M203.97 200.88L204.394 187.74L196.786 185.1C196.459 180.647 195.776 176.231 194.747 171.9L201.204 166.9L196.823 154.56L188.837 155.24C186.944 151.264 184.733 147.467 182.229 143.89L186.364 136.58L177.868 126.97L170.731 130.84C167.522 127.934 164.093 125.312 160.479 123L161.631 114.6L150.303 109.16L145.111 115.6C141.106 114.243 137.001 113.239 132.839 112.6L130.951 104.37L118.509 103.92L116.055 111.99C111.855 112.34 107.69 113.059 103.603 114.14L98.8079 107.34L87.159 111.95L87.8009 120.41C84.0497 122.446 80.4658 124.811 77.0865 127.48L70.1387 123L61.0291 132L64.6823 139.6C61.9385 142.982 59.475 146.609 57.3191 150.44L49.399 149.18L44.2259 161.18L50.343 166.67C49.0526 170.91 48.1052 175.259 47.511 179.67L39.6475 181.76L39.2227 194.9L46.8691 197.54C47.1853 201.99 47.8644 206.403 48.8987 210.73L42.4417 215.73L46.8313 228.08L54.8175 227.4C56.7062 231.379 58.9172 235.176 61.4255 238.75L57.2814 246.06L65.7774 255.67L72.914 251.8C76.1147 254.705 79.5375 257.324 83.147 259.63L81.9575 268.02L93.2855 273.47L98.5059 267.03C102.511 268.399 106.616 269.42 110.778 270.08L112.666 278.31L125.108 278.76L127.562 270.69C131.764 270.336 135.932 269.617 140.023 268.54L144.743 275.34L156.392 270.73L155.788 262.27C159.532 260.221 163.115 257.856 166.502 255.2L173.365 259.58L182.475 250.58L178.821 242.98C181.566 239.598 184.03 235.971 186.185 232.14L194.105 233.4L199.278 221.4L193.161 215.9C194.473 211.663 195.436 207.313 196.04 202.9L203.97 200.88ZM120.152 243.45C110.417 243.102 100.999 239.703 93.088 233.683C85.1773 227.664 79.1295 219.294 75.7098 209.633C72.2901 199.972 71.652 189.453 73.8763 179.408C76.1007 169.363 81.0875 160.242 88.2059 153.199C95.3243 146.157 104.255 141.509 113.867 139.844C123.479 138.178 133.342 139.57 142.208 143.844C151.073 148.117 158.543 155.08 163.672 163.851C168.802 172.622 171.36 182.808 171.024 193.12C170.576 206.939 164.965 220.005 155.425 229.443C145.885 238.881 133.198 243.919 120.152 243.45Z" fill="#FDEEEE"/>
<path d="M416.305 157.42L419.43 154.33L418.193 151.72C419.137 150.551 419.986 149.3 420.733 147.98L423.47 148.41L425.236 144.27L423.14 142.38C423.591 140.916 423.923 139.414 424.131 137.89L426.822 137.18L426.954 132.64L424.329 131.74C424.214 130.203 423.981 128.678 423.631 127.18L425.849 125.43L424.339 121.18L421.592 121.41C420.929 120.04 420.162 118.728 419.298 117.49L420.723 114.99L417.788 111.67L415.333 113C414.227 112.003 413.047 111.104 411.803 110.31L412.199 107.41L408.3 105.52L406.507 107.75C405.122 107.294 403.705 106.959 402.268 106.75L401.598 103.91L397.312 103.74L396.453 106.54C395.007 106.657 393.574 106.905 392.167 107.28L390.525 104.93L386.503 106.52L386.73 109.44C385.432 110.135 384.194 110.948 383.029 111.87L380.651 110.36L377.517 113.45L378.734 116C377.784 117.166 376.931 118.418 376.185 119.74L373.457 119.31L371.683 123.45L373.788 125.35C373.351 126.812 373.035 128.311 372.844 129.83L370.144 130.54L370.012 135.08L372.645 135.98C372.753 137.518 372.983 139.044 373.335 140.54L371.107 142.28L372.617 146.53L375.374 146.31C376.036 147.681 376.803 148.992 377.668 150.23L376.242 152.73L379.178 156.05L381.632 154.72C382.736 155.72 383.917 156.62 385.163 157.41L384.757 160.3L388.665 162.19L390.459 159.97C391.844 160.422 393.262 160.757 394.697 160.97L395.368 163.81L399.653 163.98L400.512 161.18C401.958 161.064 403.392 160.816 404.798 160.44L406.441 162.79L410.462 161.2L410.245 158.28C411.539 157.584 412.774 156.771 413.936 155.85L416.305 157.42ZM394.008 138.29C393.184 137.355 392.64 136.181 392.445 134.918C392.251 133.654 392.414 132.358 392.915 131.194C393.416 130.029 394.232 129.048 395.259 128.374C396.287 127.701 397.48 127.365 398.687 127.41C399.895 127.455 401.063 127.878 402.043 128.626C403.023 129.374 403.772 130.413 404.195 131.612C404.618 132.811 404.695 134.116 404.418 135.362C404.14 136.607 403.52 137.738 402.636 138.61C402.05 139.196 401.359 139.653 400.604 139.955C399.85 140.256 399.046 140.396 398.24 140.366C397.434 140.336 396.642 140.138 395.909 139.781C395.176 139.425 394.517 138.918 393.97 138.29H394.008Z" fill="#FDEEEE"/>
<path d="M302.081 292.34L292.32 285.19C291.363 281.467 290.047 277.858 288.393 274.42L290.895 264.02L276.735 247.96L266.766 249.89C263.638 247.906 260.326 246.267 256.882 245L250.822 234.19L230.054 233.44L223.314 243.78C219.803 244.793 216.4 246.184 213.156 247.93L203.339 245.28L188.178 260.28L190 270.82C188.128 274.14 186.584 277.655 185.393 281.31L175.188 287.73L174.48 309.73L184.251 316.87C185.192 320.614 186.505 324.241 188.168 327.69L185.639 338L199.799 354.06L209.701 352.14C212.852 354.127 216.186 355.769 219.651 357.04L225.702 367.83L246.47 368.59L253.201 358.25C256.743 357.237 260.178 355.843 263.452 354.09L273.213 356.73L288.383 341.73L286.562 331.19C288.439 327.87 289.983 324.351 291.168 320.69L301.373 314.27L302.081 292.34ZM237.464 325.73C232.854 325.563 228.393 323.952 224.647 321.1C220.901 318.248 218.038 314.284 216.419 309.708C214.8 305.132 214.498 300.15 215.551 295.392C216.605 290.634 218.966 286.315 222.337 282.978C225.708 279.642 229.937 277.44 234.49 276.65C239.042 275.86 243.713 276.517 247.913 278.539C252.113 280.562 255.652 283.857 258.084 288.01C260.515 292.163 261.73 296.986 261.574 301.87C261.357 308.421 258.696 314.612 254.174 319.086C249.652 323.559 243.639 325.949 237.455 325.73H237.464Z" fill="#FDEEEE"/>
<path d="M324.31 230H324.244L307.894 229.41C307.562 229.404 307.238 229.309 306.951 229.134C306.664 228.959 306.423 228.71 306.251 228.41L301.842 220.56C299.466 219.639 297.167 218.509 294.97 217.18L287.918 218.47C287.59 218.534 287.252 218.508 286.935 218.397C286.618 218.285 286.333 218.09 286.106 217.83L274.938 205.17C274.704 204.908 274.538 204.586 274.455 204.236C274.372 203.885 274.376 203.518 274.466 203.17L276.251 195.76C275.145 193.359 274.242 190.859 273.551 188.29L266.442 183.09C266.167 182.889 265.943 182.618 265.793 182.302C265.643 181.985 265.571 181.634 265.583 181.28L266.14 163.96C266.151 163.61 266.243 163.269 266.408 162.965C266.572 162.662 266.805 162.406 267.084 162.22L274.514 157.55C275.37 155.039 276.435 152.613 277.695 150.3L276.392 142.77C276.331 142.42 276.355 142.06 276.46 141.723C276.566 141.385 276.75 141.082 276.996 140.84L288.947 129.02C289.195 128.771 289.498 128.593 289.829 128.504C290.159 128.414 290.506 128.417 290.835 128.51L297.859 130.41C300.12 129.238 302.473 128.278 304.892 127.54L309.8 120.01C309.983 119.711 310.237 119.469 310.538 119.309C310.838 119.149 311.174 119.077 311.509 119.1L327.85 119.7C328.182 119.707 328.507 119.803 328.796 119.977C329.084 120.152 329.327 120.401 329.502 120.7L333.91 128.56C336.269 129.477 338.55 130.608 340.726 131.94L347.862 130.55C348.191 130.485 348.53 130.51 348.847 130.622C349.164 130.734 349.449 130.929 349.675 131.19L360.842 143.85C361.075 144.113 361.241 144.435 361.323 144.785C361.406 145.135 361.403 145.502 361.314 145.85L359.521 153.28C360.627 155.676 361.536 158.169 362.24 160.73L369.338 165.93C369.614 166.13 369.837 166.402 369.988 166.718C370.138 167.034 370.21 167.386 370.198 167.74L369.641 185.05C369.629 185.401 369.538 185.744 369.373 186.049C369.209 186.354 368.976 186.612 368.697 186.8L361.267 191.47C360.405 193.975 359.34 196.398 358.086 198.71L359.389 206.25C359.45 206.598 359.426 206.957 359.321 207.293C359.215 207.628 359.031 207.93 358.785 208.17L346.758 220C346.51 220.248 346.207 220.425 345.876 220.512C345.545 220.6 345.199 220.596 344.87 220.5L337.884 218.61C335.608 219.776 333.243 220.736 330.814 221.48L325.952 229C325.777 229.297 325.536 229.543 325.249 229.718C324.963 229.892 324.64 229.989 324.31 230ZM309.121 225.23L323.281 225.74L328.001 218.55C328.262 218.13 328.663 217.83 329.124 217.71C331.781 216.94 334.358 215.892 336.818 214.58C337.246 214.361 337.734 214.308 338.196 214.43L344.804 216.22L355.188 205.97L353.998 198.74C353.907 198.235 353.994 197.711 354.244 197.27C355.646 194.794 356.801 192.17 357.69 189.44C357.839 188.945 358.155 188.525 358.577 188.26L365.685 183.8L366.167 168.8L359.37 163.8C359.012 163.541 358.743 163.165 358.605 162.73C358.605 162.68 358.605 162.62 358.605 162.56C357.878 159.796 356.891 157.116 355.66 154.56C355.442 154.102 355.388 153.576 355.509 153.08L357.208 146L347.532 135L340.745 136.32C340.271 136.411 339.782 136.319 339.366 136.06C337.024 134.572 334.544 133.342 331.966 132.39C331.818 132.34 331.675 132.273 331.541 132.19C331.269 132.01 331.042 131.763 330.88 131.47L326.622 123.92L312.462 123.4L307.742 130.61C307.461 131.033 307.046 131.334 306.572 131.46C303.943 132.221 301.394 133.263 298.963 134.57C298.535 134.802 298.041 134.858 297.576 134.73L290.892 132.93L280.508 143.18L281.754 150.35C281.828 150.802 281.765 151.268 281.575 151.68L281.48 151.85C280.076 154.336 278.922 156.97 278.035 159.71C277.878 160.18 277.571 160.576 277.166 160.83L270.058 165.3L269.577 180.3L276.383 185.3C276.771 185.581 277.052 185.999 277.176 186.48C277.883 189.288 278.867 192.01 280.112 194.6C280.179 194.747 280.233 194.902 280.272 195.06C280.343 195.389 280.343 195.731 280.272 196.06L278.573 203.06L288.249 214.06L294.989 212.75C295.46 212.659 295.946 212.751 296.358 213.01C298.718 214.495 301.213 215.725 303.806 216.68C304.274 216.827 304.67 217.16 304.91 217.61L309.121 225.23ZM317.872 206.26C317.522 206.26 317.173 206.26 316.824 206.26C308.976 206.114 301.501 202.69 296.025 196.734C290.549 190.778 287.515 182.771 287.584 174.457C287.654 166.143 290.82 158.195 296.394 152.342C301.968 146.489 309.499 143.205 317.348 143.205C325.196 143.205 332.727 146.489 338.301 152.342C343.876 158.195 347.042 166.143 347.111 174.457C347.18 182.771 344.146 190.778 338.67 196.734C333.194 202.69 325.719 206.114 317.872 206.26ZM317.872 147.17C311.014 147.295 304.481 150.285 299.694 155.489C294.907 160.692 292.255 167.688 292.314 174.953C292.373 182.219 295.139 189.165 300.01 194.28C304.88 199.396 311.461 202.266 318.32 202.266C325.179 202.266 331.76 199.396 336.63 194.28C341.501 189.165 344.267 182.219 344.326 174.953C344.385 167.688 341.733 160.692 336.946 155.489C332.159 150.285 325.626 147.295 318.768 147.17H317.872Z" fill="#FDEEEE"/>
<path d="M361.965 105.32L355.187 103.4L353.375 96.2199L356.028 93.4199L358.822 99.5499L364.618 102.52L361.965 105.32Z" fill="#FDEEEE"/>
<path d="M362.383 100.52C362.676 100.209 362.909 99.8404 363.068 99.4346C363.226 99.0288 363.308 98.5939 363.308 98.1547C363.308 97.7155 363.226 97.2805 363.068 96.8748C362.909 96.469 362.676 96.1003 362.383 95.7897C362.09 95.4791 361.742 95.2327 361.359 95.0647C360.976 94.8966 360.565 94.8101 360.151 94.8101C359.736 94.8101 359.325 94.8966 358.942 95.0647C358.559 95.2327 358.211 95.4791 357.918 95.7897L361.288 90.4297L365.8 92.8497L366.792 97.8497L362.383 100.52Z" fill="#FDEEEE"/>
<path d="M355.492 94.0002L360.458 88.7402L367.217 90.6502L369.039 97.8202L364.073 103.08L357.305 101.15L355.492 94.0002ZM364.507 98.3002C364.949 97.8316 365.25 97.2347 365.372 96.5849C365.494 95.9352 365.431 95.2618 365.191 94.6499C364.952 94.0379 364.547 93.5149 364.027 93.147C363.507 92.779 362.895 92.5826 362.27 92.5826C361.645 92.5826 361.034 92.779 360.514 93.147C359.994 93.5149 359.588 94.0379 359.349 94.6499C359.109 95.2618 359.046 95.9352 359.168 96.5849C359.29 97.2347 359.591 97.8316 360.033 98.3002C360.631 98.9217 361.436 99.2682 362.274 99.2644C363.112 99.2607 363.914 98.907 364.507 98.2802V98.3002Z" fill="#FCDEDE"/>
<path d="M85.1676 296.71L88.802 295.67L89.7743 291.82L88.3583 290.32L86.8574 293.61L83.7422 295.2L85.1676 296.71Z" fill="#FDEEEE"/>
<path d="M84.9596 294.13C84.6756 293.787 84.5255 293.341 84.5398 292.885C84.554 292.428 84.7316 291.995 85.0365 291.672C85.3414 291.349 85.7508 291.161 86.1818 291.145C86.6127 291.13 87.033 291.289 87.3574 291.59L85.5543 288.72L83.0716 290L82.543 292.7L84.9596 294.13Z" fill="#FDEEEE"/>
<path d="M88.6428 290.62L85.9807 287.8L82.3463 288.8L81.4023 292.65L84.0172 295.5L87.6516 294.5L88.6428 290.62ZM83.8095 292.93C83.6345 292.767 83.4928 292.569 83.3933 292.346C83.2937 292.123 83.2383 291.881 83.2306 291.635C83.2229 291.389 83.263 291.144 83.3485 290.914C83.4339 290.685 83.5629 290.477 83.7274 290.303C83.8918 290.129 84.0884 289.992 84.3047 289.901C84.5211 289.811 84.7527 289.768 84.9852 289.777C85.2176 289.785 85.4461 289.843 85.6563 289.949C85.8665 290.054 86.0541 290.204 86.2073 290.39C86.4913 290.733 86.6414 291.179 86.6271 291.635C86.6129 292.092 86.4353 292.525 86.1304 292.848C85.8255 293.171 85.4161 293.359 84.9852 293.375C84.5542 293.39 84.1339 293.231 83.8095 292.93Z" fill="#FCDEDE"/>
<path d="M72.0856 85.6603L75.1064 88.8603C75.4842 89.2536 75.9927 89.4739 76.5224 89.4739C77.0521 89.4739 77.5606 89.2536 77.9384 88.8603C78.3075 88.4588 78.514 87.9206 78.514 87.3603C78.514 86.7999 78.3075 86.2617 77.9384 85.8603L74.9271 82.6702C74.5481 82.2793 74.04 82.0605 73.5111 82.0605C72.9821 82.0605 72.474 82.2793 72.0951 82.6702C71.7254 83.0687 71.5174 83.6045 71.5156 84.1632C71.5139 84.7219 71.7184 85.2592 72.0856 85.6603Z" fill="#FCDEDE"/>
<path d="M69.9602 77.7095C70.7485 77.4774 71.5836 77.494 72.363 77.7576C73.1425 78.0211 73.8323 78.5201 74.3478 79.1931C74.8633 79.8662 75.182 80.684 75.2649 81.5463C75.3477 82.4085 75.1911 83.2776 74.8142 84.0469C74.4373 84.8161 73.8565 85.4521 73.1432 85.8766C72.4299 86.3011 71.615 86.4957 70.7988 86.4365C69.9825 86.3773 69.2003 86.0669 68.5483 85.5434C67.8962 85.0199 67.4027 84.306 67.1282 83.4895C66.954 82.9131 66.8891 82.3059 66.9373 81.7028C66.9855 81.0997 67.1458 80.5126 67.409 79.9754C67.6722 79.4382 68.0332 78.9614 68.471 78.5725C68.9089 78.1837 69.415 77.8904 69.9602 77.7095Z" fill="#FDEEEE"/>
<path d="M66.676 82.9548L67.1133 84.2441L76.0863 80.8295L75.649 79.5402L66.676 82.9548Z" fill="#FCDEDE"/>
<path d="M236.001 427.56C337.087 427.56 419.033 422.492 419.033 416.24C419.033 409.988 337.087 404.92 236.001 404.92C134.915 404.92 52.9688 409.988 52.9688 416.24C52.9688 422.492 134.915 427.56 236.001 427.56Z" fill="#FCDEDE"/>
<path d="M209.992 304.84C211.304 282.44 208.897 241.71 248.649 247.11C291.252 252.88 279.065 305.66 279.065 305.66L209.992 304.84Z" fill="#8F3535"/>
<path d="M237.425 291.38C247.007 291.38 254.776 283.151 254.776 273C254.776 262.849 247.007 254.62 237.425 254.62C227.842 254.62 220.074 262.849 220.074 273C220.074 283.151 227.842 291.38 237.425 291.38Z" fill="white"/>
<path d="M239.71 254.65C231.488 253.17 222.718 259.58 221.84 266.08L254.417 269.26C253.266 261.85 246.223 255.83 239.71 254.65Z" fill="#8F3535"/>
<path d="M250.707 272.54C250.471 277.35 247.998 281.12 245.185 280.96C242.372 280.8 240.276 276.79 240.465 271.96C240.654 267.13 243.174 263.38 245.987 263.54C248.8 263.7 250.934 267.74 250.707 272.54Z" fill="#8F3535"/>
<path d="M237.428 292.38C233.809 292.38 230.272 291.244 227.264 289.114C224.255 286.985 221.91 283.958 220.525 280.417C219.141 276.875 218.778 272.979 219.484 269.219C220.19 265.46 221.933 262.007 224.491 259.296C227.05 256.586 230.31 254.74 233.858 253.993C237.407 253.245 241.086 253.629 244.429 255.095C247.772 256.562 250.629 259.046 252.639 262.233C254.649 265.42 255.722 269.167 255.722 273C255.717 278.138 253.788 283.065 250.358 286.698C246.929 290.331 242.278 292.375 237.428 292.38ZM237.428 255.63C234.182 255.63 231.01 256.65 228.311 258.56C225.613 260.47 223.51 263.185 222.269 266.361C221.027 269.538 220.703 273.033 221.337 276.404C221.971 279.776 223.534 282.873 225.83 285.303C228.125 287.733 231.049 289.388 234.233 290.057C237.416 290.727 240.715 290.381 243.713 289.064C246.71 287.747 249.272 285.518 251.074 282.659C252.875 279.799 253.836 276.438 253.834 273C253.829 268.393 252.099 263.977 249.023 260.72C245.947 257.463 241.776 255.633 237.428 255.63Z" fill="#EE5858"/>
<path opacity="0.3" d="M274.221 304.28H274.108C274.047 304.266 273.99 304.239 273.939 304.201C273.888 304.163 273.846 304.115 273.813 304.059C273.78 304.003 273.759 303.94 273.749 303.875C273.74 303.81 273.743 303.744 273.759 303.68C273.759 303.55 276.798 289.99 273.674 276.28C273.644 276.148 273.664 276.008 273.732 275.891C273.799 275.775 273.907 275.692 274.032 275.66C274.157 275.628 274.289 275.651 274.399 275.722C274.509 275.793 274.588 275.908 274.618 276.04C277.799 290.04 274.731 303.78 274.703 303.91C274.675 304.021 274.611 304.118 274.524 304.186C274.436 304.253 274.329 304.286 274.221 304.28Z" fill="white"/>
<path opacity="0.3" d="M271.588 268.76C271.498 268.759 271.409 268.731 271.332 268.68C271.256 268.629 271.194 268.556 271.154 268.47C269.981 265.723 268.477 263.148 266.679 260.81C266.601 260.708 266.564 260.577 266.577 260.446C266.589 260.315 266.65 260.194 266.745 260.11C266.794 260.067 266.849 260.035 266.909 260.016C266.969 259.996 267.032 259.99 267.094 259.996C267.157 260.003 267.217 260.022 267.273 260.054C267.328 260.085 267.376 260.128 267.416 260.18C269.257 262.586 270.802 265.23 272.013 268.05C272.04 268.109 272.055 268.173 272.058 268.238C272.062 268.304 272.052 268.369 272.031 268.431C272.01 268.492 271.978 268.549 271.936 268.597C271.893 268.645 271.843 268.683 271.786 268.71C271.724 268.741 271.657 268.758 271.588 268.76Z" fill="white"/>
<path d="M121.521 409.92H121.172C119.92 409.883 118.733 409.32 117.873 408.357C117.013 407.393 116.549 406.106 116.584 404.78C116.619 403.454 117.15 402.197 118.06 401.285C118.97 400.374 120.184 399.883 121.436 399.92H121.521C124.249 399.92 130.81 396.41 144.536 373.49C144.9 372.881 145.384 372.363 145.955 371.971C146.526 371.579 147.171 371.323 147.844 371.219C148.517 371.116 149.204 371.168 149.857 371.372C150.509 371.575 151.112 371.926 151.625 372.4C162.404 382.216 174.16 390.76 186.685 397.88C187.265 398.159 187.785 398.56 188.215 399.058C188.645 399.556 188.975 400.14 189.185 400.777C189.396 401.414 189.483 402.089 189.441 402.762C189.399 403.435 189.229 404.092 188.941 404.693C188.652 405.295 188.252 405.829 187.765 406.262C187.277 406.696 186.711 407.02 186.102 407.216C185.492 407.412 184.852 407.475 184.219 407.402C183.586 407.329 182.974 407.121 182.418 406.79C170.778 400.237 159.774 392.487 149.567 383.65C138.06 402 129.526 409.92 121.521 409.92Z" fill="#8F3535"/>
<path d="M150.728 371.5H150.322C149.58 371.386 148.911 370.965 148.462 370.33C148.012 369.694 147.819 368.896 147.924 368.11C148.594 363.11 147.764 344.48 141.807 329.98C141.543 329.339 141.498 328.621 141.681 327.949C141.864 327.277 142.262 326.693 142.808 326.3C155.741 316.97 183.286 315.85 184.457 315.81C184.829 315.797 185.2 315.861 185.548 316C185.896 316.138 186.215 316.348 186.487 316.618C186.759 316.887 186.978 317.21 187.132 317.569C187.285 317.928 187.371 318.316 187.383 318.71C187.396 319.104 187.335 319.496 187.204 319.865C187.073 320.234 186.875 320.573 186.621 320.86C186.366 321.148 186.061 321.38 185.722 321.543C185.383 321.706 185.018 321.797 184.646 321.81C184.391 321.81 160.309 322.81 147.943 330.01C153.211 344.45 154.409 362.44 153.532 368.95C153.43 369.66 153.091 370.308 152.576 370.776C152.062 371.244 151.406 371.501 150.728 371.5Z" fill="#8F3535"/>
<path d="M155.486 367.62C153.598 362.91 145.102 363.44 140.127 367.48C137.465 369.63 133.859 376.12 133.519 378.48C133.406 379.041 133.423 379.622 133.569 380.174C133.715 380.727 133.985 381.233 134.356 381.65C134.728 382.068 135.189 382.383 135.701 382.569C136.213 382.755 136.76 382.807 137.295 382.72C140.552 382.42 145.017 377.41 145.017 377.41C142.044 380.5 145.886 382.68 151.625 378.21C154.759 375.72 157.591 372.89 155.486 367.62Z" fill="#EE5858"/>
<path d="M317.853 306.16C317.81 306.17 317.765 306.17 317.721 306.16C317.661 306.143 317.605 306.113 317.556 306.072C317.507 306.031 317.466 305.98 317.436 305.923C317.406 305.865 317.387 305.801 317.381 305.735C317.375 305.669 317.382 305.603 317.4 305.54C318.656 300.9 320.025 298.07 321.828 296.54C321.545 295.465 321.598 294.321 321.979 293.28C322.418 292.065 323.195 291.019 324.206 290.28C323.932 289.965 323.736 289.582 323.639 289.166C323.541 288.75 323.545 288.314 323.649 287.9C323.991 286.647 324.698 285.541 325.67 284.74C325.319 284.325 325.128 283.787 325.132 283.23C325.132 280.23 330.333 275.71 336.233 274.85C336.358 274.832 336.485 274.866 336.586 274.947C336.687 275.028 336.754 275.147 336.771 275.28C336.789 275.413 336.756 275.547 336.68 275.654C336.603 275.761 336.49 275.832 336.365 275.85C330.758 276.66 326.057 280.96 326.076 283.23C326.074 283.569 326.195 283.895 326.415 284.14C327.685 283.228 329.114 282.593 330.618 282.272C332.122 281.951 333.671 281.95 335.176 282.27C338.074 282.86 339.254 283.51 339.122 284.44C338.857 286.19 332.693 286.56 328.558 286.04C327.818 285.969 327.097 285.748 326.434 285.39C325.544 286.061 324.882 287.019 324.546 288.12C324.465 288.412 324.466 288.722 324.548 289.013C324.63 289.304 324.79 289.563 325.009 289.76C326.765 288.76 329.228 288.4 332.485 289.16C336.762 290.16 336.922 290.71 337.026 291.04C337.059 291.157 337.062 291.281 337.034 291.399C337.005 291.517 336.947 291.624 336.865 291.71C335.969 292.71 329.408 292.24 326.113 291.38C325.716 291.284 325.331 291.133 324.971 290.93C323.996 291.558 323.245 292.511 322.838 293.64C322.565 294.371 322.49 295.167 322.621 295.94C322.789 295.834 322.962 295.737 323.14 295.65C325.094 294.65 327.454 294.83 330.371 296.15C332.259 297.02 333.203 297.8 333.297 298.59C333.301 298.793 333.253 298.993 333.159 299.169C333.064 299.345 332.926 299.491 332.759 299.59C331.315 300.59 326.274 300.45 323.649 298.97C323.046 298.623 322.543 298.108 322.196 297.48C320.657 298.98 319.411 301.65 318.278 305.84C318.244 305.931 318.185 306.01 318.11 306.066C318.035 306.123 317.946 306.156 317.853 306.16ZM322.97 296.83C323.233 297.347 323.633 297.772 324.121 298.05C326.255 299.25 330.446 299.52 332.013 298.85C332.334 298.71 332.381 298.6 332.381 298.6C332.381 298.6 332.334 298.04 330.021 296.99C327.378 295.79 325.301 295.62 323.574 296.47C323.366 296.576 323.164 296.697 322.97 296.83ZM326.123 290.26L326.359 290.33C329.433 291.081 332.597 291.333 335.742 291.08C334.626 290.642 333.477 290.307 332.306 290.08C330.273 289.497 328.123 289.559 326.123 290.26ZM327.312 284.64C327.748 284.806 328.201 284.913 328.662 284.96C333.382 285.55 337.526 284.86 338.102 284.23C337.942 284.08 337.309 283.65 334.968 283.18C332.334 282.624 329.598 283.145 327.312 284.64Z" fill="#8F3535"/>
<path d="M194.964 408.25C195.587 408.04 195.379 407.4 194.68 407.4H181.899C157.562 404.67 140.561 408.33 151.275 409.19C161.99 410.05 150.52 409.87 142.694 413.01C134.868 416.15 200.892 416.94 206.886 413.01C212.399 409.39 186.335 411.18 194.964 408.25Z" fill="#8F3535"/>
<path d="M286.476 412.24L175.272 408.33L170.656 294.11L301.976 297.22L286.476 412.24Z" fill="#EE5858"/>
<path d="M209.994 410.05C209.875 410.051 209.76 410.003 209.673 409.918C209.585 409.833 209.531 409.716 209.522 409.59L200.61 294.87C200.602 294.738 200.643 294.608 200.724 294.507C200.805 294.406 200.92 294.343 201.045 294.33C201.169 294.324 201.29 294.368 201.385 294.454C201.48 294.539 201.54 294.659 201.554 294.79L210.513 409.51C210.518 409.576 210.511 409.642 210.492 409.705C210.473 409.767 210.442 409.826 210.402 409.876C210.361 409.926 210.312 409.967 210.257 409.997C210.201 410.027 210.141 410.045 210.079 410.05H209.994Z" fill="#8F3535"/>
<path d="M286.477 412.24L316.364 407.42L325.775 301.21L301.977 297.22L286.477 412.24Z" fill="#EE5858"/>
<path opacity="0.2" d="M286.477 412.24L316.364 407.42L325.775 301.21L301.977 297.22L286.477 412.24Z" fill="#191C1F"/>
<path d="M184.768 386.32L182.03 318.45C181.963 316.773 182.22 315.1 182.788 313.533C183.355 311.966 184.22 310.539 185.328 309.34C186.437 308.141 187.766 307.196 189.233 306.563C190.7 305.93 192.275 305.623 193.858 305.66L276.987 307.66C278.624 307.699 280.234 308.105 281.712 308.852C283.19 309.599 284.501 310.669 285.56 311.992C286.619 313.315 287.401 314.86 287.855 316.527C288.309 318.193 288.424 319.943 288.192 321.66L278.979 390C278.58 392.993 277.153 395.725 274.97 397.672C272.787 399.619 270.003 400.643 267.151 400.55L195.982 398.05C193.061 397.954 190.281 396.692 188.201 394.517C186.121 392.341 184.895 389.413 184.768 386.32Z" fill="#8F3535"/>
<path d="M193.758 326.49L206.615 326.92L206.512 330.43L198.459 330.16L198.384 332.78L205.851 333.03L205.747 336.39L198.28 336.13L198.185 339.38L206.464 339.66L206.351 343.38L193.258 342.94L193.758 326.49Z" fill="white"/>
<path d="M209 343.47L209.491 327.02L217.496 327.29C218.644 327.284 219.786 327.459 220.885 327.81C221.664 328.086 222.33 328.637 222.773 329.37C223.101 329.904 223.322 330.504 223.422 331.132C223.521 331.76 223.498 332.404 223.353 333.022C223.207 333.64 222.943 334.22 222.577 334.726C222.211 335.231 221.751 335.651 221.225 335.96C220.688 336.253 220.112 336.455 219.516 336.56C219.955 336.71 220.372 336.925 220.753 337.2C221.028 337.471 221.275 337.773 221.489 338.1C221.732 338.411 221.947 338.746 222.131 339.1L224.312 343.95L218.893 343.76L216.476 338.65C216.285 338.162 216.002 337.72 215.646 337.35C215.307 337.09 214.903 336.944 214.485 336.93H214.06L213.862 343.6L209 343.47ZM214.116 333.85L216.137 333.92C216.566 333.892 216.992 333.829 217.411 333.73C217.727 333.679 218.013 333.504 218.213 333.24C218.418 332.973 218.534 332.643 218.544 332.3C218.562 332.071 218.531 331.841 218.454 331.627C218.378 331.412 218.257 331.219 218.1 331.06C217.573 330.699 216.951 330.528 216.325 330.57L214.211 330.5L214.116 333.85Z" fill="white"/>
<path d="M225.879 344L226.37 327.55L234.365 327.82C235.513 327.813 236.656 327.988 237.754 328.34C238.535 328.613 239.202 329.164 239.642 329.9C240.122 330.701 240.346 331.644 240.284 332.59C240.287 333.388 240.086 334.172 239.702 334.858C239.318 335.545 238.766 336.109 238.104 336.49C237.566 336.781 236.99 336.983 236.395 337.09C236.831 337.239 237.245 337.455 237.622 337.73C237.904 337.993 238.155 338.292 238.368 338.62C238.609 338.933 238.824 339.267 239.01 339.62L241.191 344.46L235.772 344.28L233.355 339.17C233.162 338.683 232.88 338.241 232.525 337.87C232.187 337.6 231.777 337.453 231.354 337.45H230.939L230.731 344.13L225.879 344ZM230.986 334.38L233.016 334.44C233.445 334.423 233.871 334.362 234.29 334.26C234.604 334.21 234.888 334.035 235.083 333.77C235.294 333.508 235.411 333.175 235.413 332.83C235.434 332.602 235.405 332.372 235.33 332.157C235.255 331.942 235.135 331.748 234.979 331.59C234.453 331.22 233.825 331.048 233.195 331.1L231.09 331.03L230.986 334.38Z" fill="white"/>
<path d="M241.965 336.36C241.892 335.212 242.061 334.061 242.457 332.99C242.854 331.919 243.47 330.955 244.261 330.166C245.051 329.377 245.997 328.784 247.03 328.428C248.063 328.073 249.157 327.964 250.235 328.11C251.322 328.072 252.405 328.265 253.42 328.679C254.436 329.093 255.362 329.719 256.144 330.52C256.842 331.371 257.37 332.365 257.694 333.439C258.019 334.514 258.134 335.647 258.032 336.77C258.04 338.403 257.677 340.015 256.975 341.47C256.338 342.66 255.387 343.626 254.237 344.25C252.883 344.936 251.384 345.239 249.886 345.13C248.392 345.143 246.914 344.801 245.562 344.13C244.411 343.468 243.471 342.459 242.862 341.23C242.148 339.724 241.838 338.039 241.965 336.36ZM246.761 336.54C246.619 337.8 246.889 339.074 247.526 340.15C247.823 340.502 248.185 340.787 248.588 340.987C248.992 341.188 249.43 341.301 249.876 341.318C250.322 341.336 250.766 341.259 251.183 341.091C251.6 340.922 251.98 340.667 252.302 340.34C253.002 339.217 253.334 337.882 253.246 336.54C253.373 335.334 253.095 334.12 252.463 333.11C252.177 332.76 251.823 332.48 251.425 332.289C251.028 332.097 250.596 331.999 250.159 332C249.719 331.966 249.277 332.039 248.866 332.212C248.456 332.385 248.088 332.654 247.79 333C247.075 334.02 246.712 335.27 246.761 336.54Z" fill="white"/>
<path d="M260.461 345.21L260.952 328.75L268.947 329.02C270.095 329.018 271.237 329.193 272.336 329.54C273.113 329.821 273.778 330.37 274.224 331.1C274.701 331.902 274.926 332.844 274.866 333.79C274.871 334.59 274.67 335.376 274.286 336.064C273.902 336.753 273.349 337.318 272.686 337.7C272.146 337.983 271.571 338.182 270.977 338.29C271.414 338.442 271.827 338.661 272.204 338.94C272.487 339.203 272.737 339.502 272.95 339.83C273.193 340.141 273.408 340.476 273.592 340.83L275.773 345.68L270.354 345.5L267.937 340.38C267.745 339.895 267.463 339.456 267.107 339.09C266.768 338.822 266.359 338.671 265.936 338.66H265.521L265.313 345.34L260.461 345.21ZM265.568 335.58L267.598 335.65C268.027 335.633 268.453 335.572 268.872 335.47C269.185 335.417 269.467 335.242 269.665 334.98C269.888 334.701 270.005 334.345 269.995 333.98C270.016 333.754 269.987 333.525 269.912 333.312C269.837 333.099 269.717 332.907 269.561 332.75C269.035 332.38 268.407 332.208 267.777 332.26L265.672 332.19L265.568 335.58Z" fill="white"/>
<path d="M268.098 373.16C267.921 373.163 267.745 373.127 267.582 373.053C267.419 372.978 267.273 372.868 267.154 372.73L259.073 363.36L250.351 371.8C250.109 372.034 249.789 372.158 249.462 372.143C249.134 372.128 248.826 371.976 248.604 371.72L240.524 362.35L231.801 370.79C231.559 371.024 231.24 371.148 230.912 371.133C230.585 371.118 230.276 370.966 230.055 370.71L221.964 361.34L213.251 369.78C213.124 369.902 212.975 369.995 212.813 370.053C212.65 370.112 212.478 370.134 212.307 370.12C211.979 370.099 211.672 369.945 211.448 369.69L203.368 360.33L194.655 368.76C194.411 368.995 194.09 369.119 193.761 369.104C193.432 369.089 193.122 368.936 192.899 368.68C192.788 368.553 192.703 368.404 192.648 368.242C192.592 368.08 192.568 367.908 192.576 367.736C192.584 367.564 192.624 367.395 192.694 367.239C192.764 367.084 192.862 366.945 192.984 366.83L202.612 357.5C202.856 357.265 203.177 357.141 203.506 357.156C203.835 357.171 204.145 357.323 204.368 357.58L212.449 366.95L221.162 358.51C221.409 358.28 221.73 358.158 222.059 358.17C222.387 358.188 222.696 358.343 222.918 358.6L230.999 367.97L239.721 359.53C239.84 359.412 239.98 359.321 240.133 359.262C240.285 359.202 240.448 359.175 240.61 359.183C240.773 359.19 240.932 359.232 241.079 359.305C241.226 359.378 241.358 359.482 241.468 359.61L249.548 368.98L258.271 360.54C258.512 360.305 258.832 360.182 259.16 360.197C259.487 360.212 259.795 360.364 260.017 360.62L269.042 371C269.203 371.191 269.308 371.427 269.345 371.681C269.381 371.934 269.348 372.193 269.247 372.426C269.147 372.659 268.985 372.857 268.781 372.994C268.577 373.131 268.34 373.203 268.098 373.2V373.16Z" fill="white"/>
<path d="M118.708 414.67L112.799 411.68L107.531 384.51L110.392 381.18L118.708 414.67Z" fill="#EE5858"/>
<path d="M118.707 414.67L126.552 409.81L119.831 387.43L110.391 381.18L118.707 414.67Z" fill="#EE5858"/>
<path opacity="0.2" d="M118.707 414.67L126.552 409.81L119.831 387.43L110.391 381.18L118.707 414.67Z" fill="#191C1F"/>
<path d="M247.328 419.61H246.676C245.424 419.574 244.237 419.013 243.376 418.05C242.515 417.087 242.05 415.801 242.084 414.475C242.118 413.149 242.647 411.891 243.556 410.979C244.465 410.067 245.679 409.574 246.931 409.61C254.2 409.86 269.587 405.13 278.385 396.09C278.916 395.538 279.563 395.127 280.273 394.89C295.179 390.15 300.72 399.72 300.947 400.13L292.828 405.22C292.857 405.284 292.892 405.344 292.932 405.4C292.847 405.27 290.733 402.4 284.011 404.16C272.976 414.82 256.041 419.61 247.328 419.61Z" fill="#8F3535"/>
<path d="M246.751 426.25L229.561 425.11L228.211 391.53L251.311 392.44L246.751 426.25Z" fill="#EE5858"/>
<path d="M246.754 426.25L250.775 422.01L253.268 401.08L251.313 392.44L246.754 426.25Z" fill="#EE5858"/>
<path opacity="0.2" d="M246.754 426.25L250.775 422.01L253.268 401.08L251.313 392.44L246.754 426.25Z" fill="#191C1F"/>
<path d="M346.361 413.54C345.744 413.539 345.144 413.325 344.653 412.93C334.835 405.03 321.572 391 316.484 377.47C316.407 377.274 316.354 377.069 316.323 376.86C313.841 361.22 311.471 328.31 311.367 326.92C311.339 326.526 311.385 326.13 311.502 325.755C311.618 325.379 311.803 325.032 312.047 324.733C312.538 324.128 313.236 323.755 313.987 323.695C314.738 323.635 315.481 323.894 316.052 324.415C316.623 324.935 316.975 325.674 317.031 326.47C317.031 326.8 319.457 360.03 321.874 375.54C326.953 388.7 340.754 402.21 348.098 408.15C348.571 408.53 348.919 409.058 349.094 409.659C349.268 410.26 349.26 410.904 349.07 411.5C348.88 412.095 348.518 412.613 348.036 412.979C347.553 413.345 346.974 413.541 346.38 413.54H346.361Z" fill="#8F3535"/>
<path d="M359.455 415.05C357.265 415.05 354.783 414 352.073 411.93C351.465 411.463 351.057 410.759 350.938 409.974C350.819 409.188 351 408.384 351.441 407.74C351.881 407.095 352.546 406.663 353.288 406.537C354.029 406.412 354.788 406.603 355.396 407.07C357.737 408.86 359.012 409.07 359.455 409.07C360.206 409.07 360.927 409.386 361.458 409.949C361.989 410.511 362.287 411.274 362.287 412.07C362.287 412.866 361.989 413.629 361.458 414.191C360.927 414.754 360.206 415.07 359.455 415.07V415.05Z" fill="#8F3535"/>
<path d="M352.867 411.84C355.897 402.31 368.32 404.19 372.606 405.61C376.267 406.736 379.778 408.349 383.056 410.41C385.369 412.01 385.407 414.7 382.32 416.23C378.544 418.11 368.953 416.44 368.953 416.44C373.899 418.73 368.953 422.44 360.258 418.8C357.436 417.62 351.8 415.34 352.867 411.84Z" fill="#EE5858"/>
<path d="M322.717 331C321.594 339.1 315.259 345.07 310.105 344.27C304.951 343.47 304.743 336.27 305.867 328.13C306.99 319.99 309.029 314.13 314.183 314.93C319.337 315.73 323.84 322.93 322.717 331Z" fill="#8F3535"/>
<path d="M198.126 298.7C198.553 298.7 198.9 298.333 198.9 297.88C198.9 297.427 198.553 297.06 198.126 297.06C197.698 297.06 197.352 297.427 197.352 297.88C197.352 298.333 197.698 298.7 198.126 298.7Z" fill="#8F3535"/>
<path d="M205.99 303.78C205.99 303.942 205.944 304.101 205.859 304.236C205.774 304.37 205.653 304.475 205.512 304.538C205.37 304.6 205.215 304.616 205.064 304.584C204.914 304.553 204.776 304.474 204.668 304.36C204.56 304.245 204.486 304.099 204.456 303.94C204.426 303.781 204.442 303.616 204.5 303.466C204.559 303.316 204.658 303.188 204.785 303.098C204.913 303.008 205.062 302.96 205.215 302.96C205.421 302.96 205.618 303.046 205.763 303.2C205.908 303.354 205.99 303.562 205.99 303.78Z" fill="#8F3535"/>
<path d="M206.861 400.68C206.861 400.842 206.815 401.001 206.73 401.135C206.645 401.27 206.524 401.375 206.383 401.437C206.241 401.5 206.086 401.516 205.936 401.484C205.785 401.452 205.647 401.374 205.539 401.26C205.431 401.145 205.357 400.999 205.327 400.84C205.298 400.681 205.313 400.516 205.371 400.366C205.43 400.216 205.529 400.088 205.657 399.998C205.784 399.908 205.933 399.86 206.087 399.86C206.292 399.86 206.489 399.946 206.634 400.1C206.779 400.254 206.861 400.462 206.861 400.68Z" fill="#8F3535"/>
<path d="M213.947 406.59C213.947 406.752 213.901 406.911 213.816 407.046C213.731 407.18 213.61 407.286 213.469 407.348C213.327 407.41 213.172 407.426 213.021 407.394C212.871 407.363 212.733 407.285 212.625 407.17C212.517 407.055 212.443 406.909 212.413 406.75C212.383 406.591 212.399 406.426 212.457 406.276C212.516 406.126 212.615 405.998 212.742 405.908C212.87 405.818 213.019 405.77 213.173 405.77C213.378 405.77 213.575 405.856 213.72 406.01C213.865 406.164 213.947 406.373 213.947 406.59Z" fill="#8F3535"/>
<path d="M77.8896 416.42C76.5306 416.353 75.2032 415.963 74.0055 415.279C72.8078 414.596 71.7704 413.636 70.9701 412.47C70.9308 412.417 70.9023 412.355 70.8862 412.289C70.8701 412.224 70.8668 412.155 70.8765 412.088C70.8862 412.021 70.9087 411.957 70.9426 411.899C70.9765 411.842 71.0211 411.792 71.0737 411.753C71.1263 411.715 71.1858 411.688 71.2485 411.674C71.3113 411.66 71.376 411.66 71.4387 411.674C71.5014 411.688 71.5608 411.715 71.6133 411.754C71.6659 411.793 71.7104 411.843 71.7441 411.9C73.5094 414.6 77.4081 416.03 79.1073 415.18C79.2775 415.104 79.4292 414.987 79.551 414.84C78.6924 414.44 77.9401 413.822 77.3606 413.04C76.781 412.259 76.3921 411.339 76.2281 410.36C76.011 409.09 75.8411 407.36 76.8228 407.14C78.1822 406.82 79.9569 410.29 80.5988 412.92C80.7151 413.355 80.7567 413.809 80.7216 414.26C81.2661 414.432 81.8387 414.48 82.4019 414.4C82.6557 414.38 82.9026 414.303 83.1269 414.176C83.3512 414.048 83.5479 413.873 83.7046 413.66C83.0833 413.164 82.568 412.534 82.1922 411.812C81.8165 411.09 81.5887 410.292 81.524 409.47C81.1653 406.73 81.439 406.26 81.7222 406.02C81.814 405.946 81.9235 405.9 82.0385 405.887C82.1536 405.875 82.2696 405.897 82.3736 405.95C83.3837 406.4 84.6014 410.28 84.8374 412.48C84.8657 412.709 84.8657 412.941 84.8374 413.17C85.2444 413.336 85.6759 413.424 86.1118 413.43C86.9123 413.463 87.704 413.244 88.3868 412.8C88.2547 412.71 88.132 412.61 88.0093 412.51C87.0653 411.62 86.631 410.2 86.8009 408.18C86.9331 406.61 87.2635 405.75 87.8582 405.48C88.0501 405.399 88.2602 405.378 88.463 405.421C88.6658 405.463 88.8525 405.567 89.0005 405.72C89.6377 406.466 90.1139 407.349 90.3959 408.309C90.678 409.27 90.7591 410.283 90.6336 411.28C90.5516 411.695 90.3875 412.087 90.1521 412.43C91.8891 412.75 94.3246 412.23 96.4297 411.68C96.4917 411.664 96.556 411.662 96.619 411.672C96.6819 411.683 96.7423 411.707 96.7967 411.742C96.851 411.777 96.8983 411.823 96.9357 411.878C96.9732 411.933 97.0001 411.995 97.015 412.06C97.0299 412.126 97.0324 412.194 97.0224 412.261C97.0125 412.327 96.9902 412.391 96.9569 412.449C96.9236 412.506 96.8799 412.557 96.8283 412.596C96.7767 412.636 96.7183 412.664 96.6563 412.68C94.0981 413.35 91.3416 413.9 89.3969 413.3C88.4477 414.065 87.2853 414.473 86.0929 414.46C85.5638 414.453 85.0399 414.348 84.5448 414.15C84.3251 414.51 84.0305 414.812 83.6836 415.032C83.3366 415.252 82.9466 415.385 82.5435 415.42C81.8339 415.517 81.113 415.452 80.4289 415.23C80.2087 415.623 79.8789 415.934 79.4849 416.12C78.9786 416.337 78.4353 416.439 77.8896 416.42ZM77.0777 408.14C76.9471 408.82 76.9731 409.523 77.1533 410.19C77.2864 410.99 77.5996 411.744 78.0663 412.388C78.533 413.032 79.1395 413.547 79.8342 413.89C79.821 413.653 79.783 413.418 79.7209 413.19C78.9846 410.33 77.5686 408.36 77.0777 408.14ZM82.3358 407.27C82.342 407.96 82.3956 408.649 82.4963 409.33C82.6004 410.549 83.1087 411.69 83.9312 412.55C83.6989 410.704 83.1587 408.916 82.3358 407.27ZM88.2736 406.4C88.2736 406.4 87.9149 406.59 87.7827 408.26C87.6505 409.93 87.9243 411.08 88.6606 411.75C88.8348 411.9 89.0249 412.027 89.227 412.13C89.4753 411.849 89.6508 411.504 89.7368 411.13C89.9049 409.556 89.5035 407.973 88.6134 406.7C88.4152 406.44 88.3019 406.4 88.2736 406.4Z" fill="#8F3535"/>
<path d="M216.054 423.98L218.612 419.28L216.054 414.58H213.316L214.865 419.28L213.316 423.98H216.054Z" fill="#8F3535"/>
<path d="M213.496 421.73C213.18 421.752 212.864 421.704 212.566 421.591C212.269 421.478 211.996 421.301 211.766 421.072C211.535 420.843 211.351 420.566 211.226 420.259C211.1 419.952 211.035 419.62 211.035 419.285C211.035 418.95 211.1 418.619 211.226 418.312C211.351 418.004 211.535 417.728 211.766 417.499C211.996 417.269 212.269 417.093 212.566 416.98C212.864 416.866 213.18 416.819 213.496 416.84L209.153 415.92L207.992 419.64L209.937 422.78L213.496 421.73Z" fill="#8F3535"/>
<path d="M213.872 414.58H208.746L206.188 419.28L208.746 423.98H213.872L216.43 419.28L213.872 414.58ZM211.313 421.73C210.856 421.732 210.408 421.59 210.026 421.322C209.644 421.054 209.346 420.672 209.17 420.225C208.993 419.777 208.946 419.284 209.034 418.808C209.123 418.332 209.342 417.895 209.665 417.551C209.988 417.208 210.4 416.973 210.849 416.878C211.298 416.783 211.764 416.831 212.187 417.016C212.61 417.201 212.972 417.515 213.226 417.918C213.481 418.321 213.617 418.795 213.617 419.28C213.617 419.928 213.374 420.55 212.943 421.009C212.511 421.468 211.925 421.727 211.313 421.73Z" fill="#EE5858"/>
<path d="M394.487 414.26L392.59 410.77L394.487 407.28H396.517L395.375 410.77L396.517 414.26H394.487Z" fill="#EE5858"/>
<path d="M396.387 412.59C396.622 412.609 396.859 412.576 397.082 412.493C397.305 412.41 397.51 412.279 397.683 412.109C397.856 411.939 397.994 411.732 398.089 411.503C398.183 411.273 398.232 411.026 398.232 410.775C398.232 410.525 398.183 410.277 398.089 410.048C397.994 409.818 397.856 409.612 397.683 409.442C397.51 409.271 397.305 409.141 397.082 409.058C396.859 408.975 396.622 408.942 396.387 408.96L399.615 408.28L400.474 411.04L399.039 413.37L396.387 412.59Z" fill="#EE5858"/>
<path d="M396.111 407.28H399.887L401.775 410.77L399.887 414.26H396.111L394.223 410.77L396.111 407.28ZM397.999 412.59C398.339 412.592 398.672 412.487 398.956 412.288C399.24 412.09 399.461 411.806 399.593 411.474C399.724 411.141 399.76 410.775 399.694 410.421C399.629 410.068 399.466 409.742 399.226 409.487C398.986 409.231 398.68 409.057 398.347 408.986C398.013 408.915 397.667 408.95 397.353 409.088C397.038 409.225 396.769 409.459 396.58 409.758C396.391 410.058 396.29 410.41 396.29 410.77C396.289 411.01 396.332 411.247 396.418 411.468C396.504 411.69 396.631 411.891 396.79 412.06C396.95 412.229 397.14 412.363 397.349 412.454C397.558 412.545 397.782 412.592 398.008 412.59H397.999Z" fill="#8F3535"/>
<path d="M323.794 418.9H328.06C328.595 418.897 329.106 418.671 329.483 418.27C329.86 417.869 330.071 417.326 330.071 416.76C330.071 416.194 329.86 415.651 329.483 415.25C329.106 414.849 328.595 414.623 328.06 414.62H323.794C323.258 414.62 322.744 414.846 322.365 415.247C321.986 415.648 321.773 416.193 321.773 416.76C321.773 417.328 321.986 417.872 322.365 418.273C322.744 418.675 323.258 418.9 323.794 418.9Z" fill="#8F3535"/>
<path d="M316.93 414.86C317.326 414.097 317.924 413.474 318.651 413.067C319.377 412.659 320.2 412.486 321.018 412.569C321.837 412.651 322.614 412.986 323.255 413.531C323.896 414.076 324.372 414.807 324.625 415.636C324.878 416.464 324.897 417.353 324.679 418.192C324.461 419.031 324.016 419.785 323.399 420.359C322.781 420.934 322.018 421.305 321.205 421.426C320.391 421.547 319.561 421.412 318.818 421.04C317.797 420.482 317.026 419.52 316.672 418.362C316.319 417.204 316.411 415.946 316.93 414.86Z" fill="#EE5858"/>
<path d="M318.08 421.039L319.25 421.623L323.316 412.487L322.146 411.903L318.08 421.039Z" fill="#8F3535"/>
</svg>
